<svg preserveAspectRatio="none" overflow="visible" style="display: block;" width="24" height="24" viewBox="0 0 24 24" fill="none" xmlns="http://www.w3.org/2000/svg">
<g id="jam:shopping-cart">
<path id="Vector" d="M9.30824 23C8.59976 23 7.9203 22.7103 7.41933 22.1945C6.91835 21.6788 6.63691 20.9793 6.63691 20.25C6.63691 19.5207 6.91835 18.8212 7.41933 18.3055C7.9203 17.7897 8.59976 17.5 9.30824 17.5C10.0167 17.5 10.6962 17.7897 11.1972 18.3055C11.6981 18.8212 11.9796 19.5207 11.9796 20.25C11.9796 20.9793 11.6981 21.6788 11.1972 22.1945C10.6962 22.7103 10.0167 23 9.30824 23ZM18.6579 23C17.9494 23 17.27 22.7103 16.769 22.1945C16.268 21.6788 15.9866 20.9793 15.9866 20.25C15.9866 19.5207 16.268 18.8212 16.769 18.3055C17.27 17.7897 17.9494 17.5 18.6579 17.5C19.3664 17.5 20.0459 17.7897 20.5468 18.3055C21.0478 18.8212 21.3292 19.5207 21.3292 20.25C21.3292 20.9793 21.0478 21.6788 20.5468 22.1945C20.0459 22.7103 19.3664 23 18.6579 23ZM1.24349 3.64412C0.910056 3.63305 0.593876 3.48891 0.361813 3.24219C0.129751 2.99546 0 2.66549 0 2.32206C0 1.97863 0.129751 1.64866 0.361813 1.40194C0.593876 1.15521 0.910056 1.01107 1.24349 1L2.78084 1C3.98561 1 5.02743 1.86075 5.28922 3.07075L6.96281 10.8285C7.2246 12.0385 8.26643 12.8993 9.4712 12.8993H19.5047L21.4308 4.9655H8.94895C8.61865 4.94998 8.30688 4.80399 8.07848 4.55788C7.85007 4.31178 7.72261 3.9845 7.72261 3.64412C7.72261 3.30375 7.85007 2.97647 8.07848 2.73037C8.30688 2.48426 8.61865 2.33827 8.94895 2.32275H21.4308C21.8212 2.32263 22.2066 2.41416 22.5575 2.59037C22.9084 2.76659 23.2157 3.02285 23.456 3.33968C23.6963 3.65651 23.8633 4.02557 23.9442 4.41879C24.0252 4.81202 24.0179 5.21907 23.9231 5.609L21.9971 13.54C21.8589 14.1126 21.5383 14.6211 21.0865 14.9842C20.6348 15.3473 20.0779 15.5442 19.5047 15.5434H9.4712C8.30221 15.5435 7.16814 15.1332 6.25626 14.3803C5.34439 13.6273 4.70926 12.5766 4.45577 11.4019L2.78084 3.64412H1.24349Z" fill="white"/>
</g>
</svg>
