<svg width="22" height="22" viewBox="0 0 22 22" fill="none" xmlns="http://www.w3.org/2000/svg">
<path d="M13.0719 4.82453C14.064 5.01808 14.9757 5.50327 15.6904 6.21799C16.4051 6.93271 16.8903 7.84444 17.0839 8.8365M13.0719 0.761767C15.133 0.990741 17.055 1.91374 18.5223 3.37921C19.9897 4.84468 20.9151 6.76552 21.1466 8.82634M9.1889 12.811C7.96847 11.5905 7.00479 10.2106 6.29787 8.73821C6.23707 8.61157 6.20667 8.54824 6.18331 8.46811C6.1003 8.18336 6.15993 7.8337 6.3326 7.59255C6.3812 7.52469 6.43925 7.46663 6.55535 7.35053C6.91045 6.99544 7.08799 6.81789 7.20407 6.63935C7.64183 5.96606 7.64183 5.09807 7.20407 4.42478C7.08799 4.24625 6.91045 4.0687 6.55535 3.71361L6.35743 3.51568C5.81765 2.9759 5.54776 2.70601 5.2579 2.5594C4.68143 2.26783 4.00065 2.26783 3.42418 2.5594C3.13433 2.70601 2.86443 2.9759 2.32465 3.51568L2.16455 3.67579C1.62661 4.21372 1.35765 4.48269 1.15223 4.84837C0.924285 5.25415 0.760391 5.88437 0.761776 6.34978C0.763023 6.76921 0.844385 7.05586 1.00711 7.62916C1.88158 10.7102 3.53155 13.6174 5.95699 16.0429C8.38244 18.4683 11.2897 20.1183 14.3707 20.9928C14.944 21.1555 15.2307 21.2368 15.6501 21.2381C16.1155 21.2395 16.7457 21.0756 17.1515 20.8476C17.5172 20.6422 17.7861 20.3732 18.3241 19.8353L18.4842 19.6752C19.024 19.1354 19.2938 18.8655 19.4405 18.5757C19.732 17.9992 19.732 17.3184 19.4405 16.742C19.2939 16.4521 19.024 16.1822 18.4842 15.6424L18.2863 15.4445C17.9312 15.0894 17.7536 14.9119 17.5751 14.7958C16.9018 14.358 16.0338 14.358 15.3605 14.7958C15.182 14.9119 15.0044 15.0894 14.6493 15.4445C14.5332 15.5606 14.4752 15.6187 14.4073 15.6673C14.1662 15.8399 13.8165 15.8996 13.5317 15.8166C13.4516 15.7932 13.3883 15.7628 13.2617 15.702C11.7893 14.9951 10.4093 14.0314 9.1889 12.811Z" stroke="white" stroke-width="1.5" stroke-linecap="round" stroke-linejoin="round"/>
</svg>
